Coordinates
version=1
nRows=5
nColumns=63
inDegrees=yes

Units are S.I. units (second, meters, Newtons, ...)
If the header above contains a line with 'inDegrees', this indicates whether rotational values are in degrees (yes) or radians (no).

endheader
time	pelvis_tilt	pelvis_list	pelvis_rotation	pelvis_tx	pelvis_ty	pelvis_tz	hip_flexion_r	hip_adduction_r	hip_rotation_r	knee_angle_r	knee_angle_r_beta	ankle_angle_r	subtalar_angle_r	mtp_angle_r	hip_flexion_l	hip_adduction_l	hip_rotation_l	knee_angle_l	knee_angle_l_beta	ankle_angle_l	subtalar_angle_l	mtp_angle_l	L5_S1_Flex_Ext	L5_S1_Lat_Bending	L5_S1_axial_rotation	L4_L5_Flex_Ext	L4_L5_Lat_Bending	L4_L5_axial_rotation	L3_L4_Flex_Ext	L3_L4_Lat_Bending	L3_L4_axial_rotation	L2_L3_Flex_Ext	L2_L3_Lat_Bending	L2_L3_axial_rotation	L1_L2_Flex_Ext	L1_L2_Lat_Bending	L1_L2_axial_rotation	L1_T12_Flex_Ext	L1_T12_Lat_Bending	L1_T12_axial_rotation	Abs_r3	Abs_r2	Abs_r1	Abs_t1	Abs_t2	neck_flexion	neck_bending	neck_rotation	arm_flex_r	arm_add_r	arm_rot_r	elbow_flex_r	pro_sup_r	wrist_flex_r	wrist_dev_r	arm_flex_l	arm_add_l	arm_rot_l	elbow_flex_l	pro_sup_l	wrist_flex_l	wrist_dev_l
      6.50000000	      3.07788807	      0.77020949	    -90.88167741	      0.92772546	      0.93783014	      0.05547347	     23.25260342	     -7.70457336	      4.53302921	     36.97067148	      0.64525994	     -3.65887990	    -14.38835675	      0.00000000	     21.69355245	      8.09575869	     -6.74794472	     34.44974590	      0.60126149	     -6.04499517	    -13.91755829	      0.00000000	     -0.44601577	      2.39559601	      0.87093887	     -0.82829589	      3.18614270	      0.92537255	     -0.73275931	      5.82465215	      0.92537255	     -0.50975143	      5.82465215	      0.76207151	     -0.41417025	      4.88509939	      0.70763783	     -0.25485341	      3.71077823	      0.65320415	     -3.18584607	     27.09946124	      4.84390072	      0.00000000	      0.00000000	      0.00000000	      0.00000000	     -0.00000000	     22.19421790	    -53.00351867	    -79.49125633	     37.59852360	     68.27607554	      0.00000000	      5.00000014	   -126.94356444	   -115.16103902	   -230.35589881	     47.50745994	     51.13292484	      0.00000000	      5.00000014
      6.51666670	      3.07186212	      0.78899054	    -90.79610450	      0.92525948	      0.93869870	      0.05535919	     23.19590635	     -7.51027601	      4.60595638	     36.84392372	      0.64304778	     -4.02921438	    -14.78213684	      0.00000000	     21.73248306	      8.03151272	     -6.41945701	     34.43829923	      0.60106171	     -6.47738987	    -14.27633704	      0.00000000	     -0.44341457	      2.41695017	      0.90980335	     -0.82346520	      3.21454372	      0.96666606	     -0.72848580	      5.87657263	      0.96666606	     -0.50677851	      5.87657263	      0.79607793	     -0.41175477	      4.92864478	      0.73921522	     -0.25336709	      3.74385581	      0.68235251	     -3.16726595	     27.34102367	      5.06005331	      0.00000000	      0.00000000	      0.00000000	      0.00000000	     -0.00000000	     21.11917253	    -52.18458057	    -80.33390567	     38.83087835	     68.03683743	      0.00000000	      5.00000014	   -129.27950028	   -116.03944639	   -231.52976428	     46.99778671	     51.19139818	      0.00000000	      5.00000014
      6.53333330	      3.07787631	      0.77056786	    -90.74112560	      0.92192587	      0.93960671	      0.05523325	     23.12346507	     -7.30874152	      4.57941016	     36.76265026	      0.64162929	     -4.26607470	    -14.96297045	      0.00000000	     21.74388142	      7.91673974	     -6.09203811	     34.46521834	      0.60153154	     -6.84246104	    -14.52006206	      0.00000000	     -0.44187713	      2.40470780	      0.95921693	     -0.82061002	      3.19826138	      1.01916799	     -0.72595994	      5.84680655	      1.01916799	     -0.50502137	      5.84680655	      0.83931482	     -0.41032711	      4.90368015	      0.77936376	     -0.25248859	      3.72489238	      0.71941270	     -3.15628417	     27.20253559	      5.33487682	      0.00000000	      0.00000000	      0.00000000	      0.00000000	     -0.00000000	     19.89656262	    -51.49312125	    -80.83729294	     39.21058974	     67.97150228	      0.00000000	      5.00000014	   -131.25676473	   -117.03621813	   -232.18729520	     46.02103574	     51.23249739	      0.00000000	      5.00000014
      6.55000000	      2.96943642	      0.87816746	    -90.68847959	      0.91788512	      0.94028444	      0.05502437	     23.16899906	     -6.95999882	      4.44419174	     36.63959088	      0.63948150	     -4.63295770	    -15.19109877	      0.00000000	     21.96637353	      7.64836603	     -5.65968171	     34.64821969	      0.60472551	     -7.33048597	    -14.98298685	      0.00000000	     -0.43904366	      2.38425982	      0.95377050	     -0.81534798	      3.17106556	      1.01338116	     -0.72130482	      5.79708933	      1.01338116	     -0.50178300	      5.79708933	      0.83454919	     -0.40769594	      4.86198263	      0.77493853	     -0.25086955	      3.69321846	      0.71532788	     -3.13604494	     26.97122396	      5.30458540	      0.00000000	      0.00000000	      0.00000000	      0.00000000	     -0.00000000	     19.42256712	    -50.09258889	    -81.71339894	     41.38301057	     67.84754709	      0.00000000	      5.00000014	   -134.55959965	   -117.96593075	   -234.01213400	     45.84678868	     51.67964523	      0.00000000	      5.00000014
      6.56666670	      2.89099922	      1.01132616	    -90.63641895	      0.91331154	      0.94103142	      0.05501803	     23.22961174	     -6.63841323	      4.23991908	     36.52633186	      0.63750475	     -4.85409413	    -15.15612442	      0.00000000	     22.16549100	      7.38803171	     -5.16827723	     34.76043275	      0.60668400	     -7.67912227	    -15.23385572	      0.00000000	     -0.44658843	      2.34463235	      0.76697291	     -0.82935936	      3.11836103	      0.81490872	     -0.73370012	      5.70073910	      0.81490872	     -0.51040591	      5.70073910	      0.67110130	     -0.41470201	      4.78117429	      0.62316549	     -0.25518063	      3.63183551	      0.57522969	     -3.18993646	     26.52295009	      4.26567326	      0.00000000	      0.00000000	      0.00000000	      0.00000000	     -0.00000000	     20.79095535	    -48.47758935	    -80.17347927	     42.30973277	     68.10577612	      0.00000000	      5.00000014	   -140.31077576	   -118.30389362	   -238.51107918	     45.66846450	     54.60471551	      0.00000000	      5.00000014
